<svg xmlns="http://www.w3.org/2000/svg" width="965.0002" height="1024" viewBox="0 0 965.0002 1024"><g id="b16b4096-0937-4916-b486-4db244b41353" data-name="container - BRASS"><path id="eab8ff11-8499-4d0e-b375-f0d2f45e95fa" data-name="back layer" d="M185,.15,915,160h79v864H166a52,52,0,0,1-52-52V754.2921L183.4662,2.4109Z" transform="translate(-29)" fill="#705a01"/><path id="fdc6c80f-c1f8-4bb5-b98a-319e22d1bc28" data-name="primary facade" d="M156,0H842a52,52,0,0,1,52,52V720a0,0,0,0,1,0,0H156a0,0,0,0,1,0,0V0A0,0,0,0,1,156,0Z" fill="#dbae03"/><polygon id="a1b8c6e6-ec1e-4804-a9cf-2eab5e41fa1c" data-name="flap" points="0 814 156 720 156 0 0 94 0 814" fill="#eacd5d"/></g><g id="a0cdce0b-dd88-41f3-8bd2-b685b22fe864" data-name="product subscript template"><path d="M329.0161,887.4785V845.5732c0-34.5605,21.8164-58.1044,61.5615-58.1044,34.7764,0,56.5928,16.416,57.6729,48.1679H413.4731c-.8632-13.1758-7.9921-20.9512-22.4638-20.9512-15.12,0-23.7608,9.9356-23.7608,26.1358v51.4092c0,16.2,8.4248,26.1357,23.545,26.1357,15.5517,0,22.248-7.9922,22.8964-22.4639h35.208c-2.16,33.9122-22.8964,49.6807-59.1845,49.6807C352.1284,945.583,329.0161,922.0391,329.0161,887.4785Z" transform="translate(-29)" fill="#fff"/><path d="M549.0137,909.0781H503.6528L495.228,942.127H457.644l43.2-151.2022h50.33L596.75,942.127H558.3018Zm-23.1123-93.3125L510.5649,880.998h31.104Z" transform="translate(-29)" fill="#fff"/><path d="M772.0752,790.9248V942.127H736.2178V844.4932l-25.2725,97.4179v.2159h-35.64L648.5205,840.6055V942.127h-32.4V790.9248h47.52l30.4571,121.3936,31.9687-120.962-.2168-.4316Z" transform="translate(-29)" fill="#fff"/></g><g id="b3d7e8f3-386b-495a-b537-ede6060b63b1" data-name="product initial-i *EXCEPTION*"><path d="M603.8809,232.3726V488.3062h51.3007V560.127H453.3984V488.3062H504.13V232.3726H453.3984V161.1221H655.1816v71.2505Z" transform="translate(-29)" fill="#fff"/></g></svg>